<svg width="36" height="14" viewBox="0 0 36 14" fill="none" xmlns="http://www.w3.org/2000/svg">
<path d="M1.5 14C1.075 14 0.71875 13.8554 0.43125 13.5663C0.14375 13.2771 0 12.9187 0 12.4913C0 12.0638 0.14375 11.7083 0.43125 11.425C0.71875 11.1417 1.075 11 1.5 11H34.5C34.925 11 35.2813 11.1446 35.5688 11.4338C35.8563 11.723 36 12.0813 36 12.5087C36 12.9362 35.8563 13.2917 35.5688 13.575C35.2813 13.8583 34.925 14 34.5 14H1.5ZM1.5 3.5C1.075 3.5 0.71875 3.35542 0.43125 3.06625C0.14375 2.77705 0 2.41872 0 1.99125C0 1.56375 0.14375 1.20833 0.43125 0.925C0.71875 0.641667 1.075 0.5 1.5 0.5H18H34.5C34.925 0.5 35.2813 0.644583 35.5688 0.933749C35.8563 1.22295 36 1.58128 36 2.00875C36 2.43625 35.8563 2.79167 35.5688 3.075C35.2813 3.35833 34.925 3.5 34.5 3.5H1.5Z" fill="white"/>
</svg>
