<svg width="36" height="14" viewBox="0 0 36 14" fill="none" xmlns="http://www.w3.org/2000/svg">
<path d="M1.5 13.5C1.075 13.5 0.71875 13.3554 0.43125 13.0663C0.14375 12.7771 0 12.4187 0 11.9913C0 11.5638 0.14375 11.2083 0.43125 10.925C0.71875 10.6417 1.075 10.5 1.5 10.5H34.5C34.925 10.5 35.2813 10.6446 35.5688 10.9338C35.8563 11.2229 36 11.5813 36 12.0087C36 12.4362 35.8563 12.7917 35.5688 13.075C35.2813 13.3583 34.925 13.5 34.5 13.5H1.5ZM1.5 3C1.075 3 0.71875 2.85542 0.43125 2.56625C0.14375 2.27705 0 1.91872 0 1.49125C0 1.06375 0.14375 0.708333 0.43125 0.425C0.71875 0.141667 1.075 0 1.5 0H18H34.5C34.925 0 35.2813 0.144583 35.5688 0.433749C35.8563 0.722949 36 1.08128 36 1.50875C36 1.93625 35.8563 2.29167 35.5688 2.575C35.2813 2.85833 34.925 3 34.5 3H1.5Z" fill="white"/>
</svg>
